<svg xmlns="http://www.w3.org/2000/svg" enable-background="new 0 0 3000 3000" viewBox="0 0 3000 3000"><ellipse cx="1678.67" cy="2751.54" fill="#bac8e5" rx="909.64" ry="87.21"/><radialGradient id="a" cx="1273.08" cy="1318.948" r="976.526" gradientUnits="userSpaceOnUse"><stop offset="0" stop-color="#4a97dd"/><stop offset="1" stop-color="#d5e5ff"/></radialGradient><circle cx="1273.08" cy="1318.95" r="976.53" fill="url(#a)" opacity=".25"/><polygon fill="#e36c00" points="1956.21 381.8 2046.05 415.39 2048.46 540.69 2341.67 332.96"/><polygon fill="#fab60c" points="2108.63 452.1 2246.76 518.64 2341.67 332.96"/><polygon fill="#ff8d00" points="2046.05 415.39 2048.31 532.53 2048.46 540.69 2108.63 452.1 2341.67 332.96"/><path fill="#575e84" d="M1381.56 829.34c4.35 12.87 7.48 20.42 7.62 20.73l7.53-3.14c-.03-.07-3.16-7.63-7.42-20.21L1381.56 829.34zM1402.08 556.81l5.69 5.85c4.95-4.82 10.41-9.32 16.22-13.38l-4.66-6.68C1413.16 546.9 1407.36 551.69 1402.08 556.81zM1480.35 516.68l1.81 7.95c6.7-1.53 13.76-2.8 21.01-3.78l-1.1-8.08C1494.59 513.79 1487.29 515.1 1480.35 516.68zM1438.53 531.26l3.61 7.3c6.14-3.04 12.72-5.77 19.55-8.13l-2.67-7.71C1451.88 525.2 1444.97 528.07 1438.53 531.26zM1377.1 785.26l-7.9 1.99c1.9 7.57 3.85 14.67 5.76 21.16l7.82-2.29C1380.9 799.71 1378.98 792.72 1377.1 785.26zM1368.46 743l-8.05 1.26c1.15 7.41 2.48 14.63 3.91 21.6l7.98-1.65C1370.9 757.38 1369.6 750.28 1368.46 743zM1524.48 518.78c6.88-.42 14.03-.63 21.46-.62l0-8.16c-7.6 0-14.92.21-21.95.64L1524.48 518.78zM1365.48 657.39l-8.11-.92c-.8 7.08-1.32 14.49-1.55 22.03l8.15.24C1364.18 671.43 1364.69 664.25 1365.48 657.39zM1393.98 578.52l-6.57-4.83c-4.32 5.89-8.27 12.29-11.74 19.02l7.25 3.73C1386.2 590.09 1389.92 584.06 1393.98 578.52zM1364.13 700.22l-8.16.33c.28 7.03.82 14.4 1.6 21.94l8.11-.84C1364.92 714.28 1364.39 707.07 1364.13 700.22zM1374.64 615.87l-7.7-2.66c-2.36 6.82-4.37 14.01-5.98 21.39l7.96 1.74C1370.46 629.27 1372.38 622.39 1374.64 615.87zM1864.33 581.36c7.69.98 14.96 1.7 21.83 2.2l.58-8.13c-6.72-.49-13.84-1.2-21.38-2.16L1864.33 581.36zM1908.18 576.29l-.05 8.15c7.64.04 15.06-.24 22.07-.82l-.67-8.12C1922.76 576.07 1915.57 576.33 1908.18 576.29zM1950.51 572.52l1.66 7.98c7.82-1.62 15.06-3.77 21.49-6.37l-3.06-7.56C1964.61 569 1957.86 571 1950.51 572.52zM1821.17 573.96c7.47 1.58 14.62 2.94 21.49 4.13l1.38-8.04c-6.76-1.17-13.83-2.52-21.19-4.07L1821.17 573.96zM1567.44 518.76c6.94.37 14.1.91 21.48 1.64l.79-8.12c-7.52-.73-14.79-1.28-21.85-1.66L1567.44 518.76zM1994.8 549.74c-.01.03-1.71 2.92-6.42 6.74l5.14 6.33c5.64-4.59 7.94-8.29 8.34-8.99L1994.8 549.74zM1652.94 530.19c6.89 1.39 13.93 2.91 21.14 4.56l1.82-7.94c-7.27-1.67-14.39-3.2-21.35-4.6L1652.94 530.19zM1610.33 522.93c6.93.94 14.08 2.04 21.35 3.3l1.38-8.04c-7.39-1.26-14.62-2.38-21.62-3.34L1610.33 522.93zM1695.12 539.83c6.85 1.73 13.82 3.58 20.93 5.54l2.17-7.86c-7.17-1.98-14.2-3.83-21.09-5.58L1695.12 539.83zM1739.21 543.51l-2.31 7.81c4.32 1.28 8.68 2.6 13.09 3.95l7.72 2.34 2.31-7.81-7.64-2.31C1747.95 546.13 1743.55 544.8 1739.21 543.51zM1778.7 563.63c7.28 1.99 14.32 3.81 21.15 5.48l1.94-7.91c-6.77-1.66-13.75-3.46-20.95-5.43L1778.7 563.63z"/><ellipse cx="1266.42" cy="2748.59" fill="#3e4268" opacity=".2" rx="322.66" ry="50.26"/><g><path fill="#bac8e5" d="M1754.61,777.16c0,0,208.14-113.44,256.83-22c48.69,91.44,659.63,1293.72,690.56,1447.98
					s-444.12,372.33-444.12,372.33s-320.8,275.92-421.24-52.48C1736.21,2194.59,1959.45,959.58,1754.61,777.16z"/><path fill="#3e4268" d="M2608.16,1969.13c-66.75-70.14-134.14-140.11-177.19-228.04c-13.93-28.45-25.28-58.13-34.57-88.39
					c-8.37-27.28-18.81-53.35-35.41-76.76c-33.81-47.7-85.76-78.5-129.25-116.26c-107.14-93.01-203.39-198.29-291.99-308.93
					c-36.65-45.76-71.96-92.59-106.1-140.26c46.83,424.27-76.51,1252.49,3.01,1512.5c100.44,328.4,421.24,52.48,421.24,52.48
					s475.05-218.07,444.12-372.33C2695.13,2168.91,2659.67,2082.99,2608.16,1969.13z" opacity=".05"/><path fill="#bac8e5" d="M2203.17,2212.58l126.63,179.32c0,0-221.85,260.67-330.83,99.18
					C1916.73,2369.23,2203.17,2212.58,2203.17,2212.58z"/><path fill="#3e4268" d="M2221.2,2459.35c-19.76-1.9-39.73-7.33-55.03-20.57c-13.16-11.4-20.82-27.6-24-44.5
					c-7.18-38.23,3.18-79.2,18.3-114.27c7.79-18.07,17.56-35.35,29.7-50.88c4.21-5.38,8.87-10.54,13.85-15.35l-0.86-1.21
					c0,0-286.44,156.65-204.21,278.5c70.47,104.42,188.12,32.33,262.48-31.66C2248.02,2460.31,2234.56,2460.64,2221.2,2459.35z" opacity=".2"/><path fill="#e1e6f4" d="M1774.24,701.89c130.8,8.74,796.29,1460.43,796.29,1460.43s-735.3-98.47-713.03,289.09
					c22.27,387.56,400.38,124.06,400.38,124.06s-194.22,244.94-382.08,88.2c0,0-753.99-1245.69-776.96-1441.83
					C1075.87,1025.7,1277.19,668.67,1774.24,701.89z"/><path fill="#f1f2ff" d="M2683.25,2206.99c-24.92-35.13-69.91-46.04-109.14-55.19c-155.58-33.28-325.01-1.4-455.37,90.94
					c-64,46.67-127.17,108.45-142.84,189.48c-18.38,99.18,96.59,143.61,175.89,111.68c75.51-28.37,134.05-85.79,182.47-148.08
					l1.91-2.52c0,0-1.83-2.5-1.83-2.49c-31.19-42.74-92.96-126.68-126.8-172.3c42.8-20.44,88.27-35.47,134.27-44.94
					c74.9-15.1,152.76-14.72,227.92-0.15c45.66,8.88,124.16,30.56,99,91.63c-49.11,111.02-300.86,249.28-410.86,310.43
					c70.85-32.74,139.71-69.76,206.9-109.79C2529.72,2424.81,2740.26,2298.89,2683.25,2206.99z M2325.52,2392.94
					c-48.93,56.29-107.8,110.93-179,135.2c-34.99,11.57-73.87,11.32-106.31-6.7c-79.19-38.87-36.42-132.21,8.1-183.01
					c43.34-51.02,98.45-90.86,158.95-119.8C2238.32,2264.77,2295.15,2348.54,2325.52,2392.94z"/><path fill="#bac8e5" d="M1763.47 922.77c-39.1 25.12-78.32 49.96-117.64 74.5-5.96-9.66-11.93-19.3-17.92-28.92 14.17-31.31 28.16-62.79 41.96-94.46-24.02 15.57-48.07 31.02-72.18 46.37-6.05-9.55-12.12-19.09-18.21-28.6 38.98-25 77.85-50.3 116.6-75.87 6.18 9.64 12.35 19.29 18.49 28.97-13.79 31.95-27.78 63.73-41.95 95.32 24.26-15.42 48.47-30.96 72.64-46.6C1751.35 903.21 1757.42 912.98 1763.47 922.77zM1801.23 1037.32c-8.95-14.99-17.93-29.94-26.97-44.84-7.95 5.01-15.91 10.01-23.88 15 7.96 13.14 15.89 26.32 23.78 39.53-7.43 4.6-14.85 9.2-22.29 13.78-7.87-13.18-15.78-26.33-23.72-39.44-8.64 5.39-17.29 10.76-25.95 16.12 8.95 14.78 17.85 29.61 26.72 44.49-7.73 4.73-15.46 9.45-23.2 14.15-14.67-24.64-29.46-49.14-44.35-73.52 39.4-24.44 78.7-49.16 117.89-74.18 15.13 24.69 30.15 49.52 45.06 74.47C1816.63 1027.72 1808.94 1032.53 1801.23 1037.32zM1834.62 1040.18c6.32 10.65 12.61 21.32 18.89 32.01-25.34 23.73-50.79 47.26-76.34 70.59 33.18-10.21 66.35-20.5 99.5-30.87 6.39 11.04 12.76 22.1 19.11 33.19-24.92 24.69-49.95 49.17-75.09 73.43 32.51-11.25 65.01-22.6 97.48-34.04 6.16 10.91 12.3 21.85 18.42 32.81-46.1 12.99-92.23 25.84-138.38 38.56-6.82-12.12-13.67-24.21-20.54-36.27 22.61-22.05 45.14-44.28 67.56-66.68-30.12 9.03-60.24 18.01-90.38 26.92-6.94-12-13.9-23.96-20.89-35.9C1767.74 1109.75 1801.29 1075.16 1834.62 1040.18zM1850.62 1353.48c-14.59-26.85-13.22-55.1 10.68-70.21 5.96 10.77 11.9 21.56 17.82 32.37-8.81 6.26-9.99 14.88-5.33 23.44 4.85 8.91 12.26 12.16 19.34 8.12 22.5-12.97-23.82-68.54 19.01-93.23 22.78-13.46 46.31-1.53 60.78 24.97 15.05 27.57 11.96 53.9-10.5 68.46-5.97-11.13-11.97-22.24-17.99-33.32 7.46-5.04 8.98-13.51 4.64-21.87-3.86-7.47-10.51-10.91-18.08-6.49-20.91 12.16 22.38 69.07-18.35 92.27C1892.22 1389.59 1866.46 1382.64 1850.62 1353.48zM2026.89 1383.84c-32.88 18.83-65.83 37.47-98.84 55.92 7.08 13.48 14.12 27 21.13 40.54-7.67 4.24-15.33 8.47-23 12.69-12.32-23.84-24.75-47.57-37.29-71.2 40.6-22.74 81.11-45.77 121.53-69.1C2015.93 1363.06 2021.42 1373.44 2026.89 1383.84zM2074.86 1537.04c-7.99-15.97-16.03-31.9-24.12-47.78-8.25 4.59-16.51 9.17-24.77 13.74 7.13 14.01 14.22 28.05 21.27 42.13-7.7 4.21-15.4 8.42-23.11 12.61-7.03-14.05-14.1-28.06-21.21-42.03-8.97 4.93-17.93 9.85-26.91 14.75 8.01 15.76 15.97 31.57 23.89 47.42-8.01 4.32-16.02 8.63-24.04 12.93-13.1-26.25-26.33-52.39-39.68-78.4 40.86-22.36 81.62-45.01 122.3-67.96 13.57 26.33 27.02 52.79 40.33 79.37C2090.83 1528.25 2082.84 1532.65 2074.86 1537.04zM2107.91 1542.06c16.74 33.64 33.28 67.48 49.61 101.51-8.04 4.32-16.09 8.63-24.14 12.92-5.58-11.63-11.17-23.23-16.8-34.81-33.12 17.84-66.31 35.48-99.54 52.93-5.1-10.55-10.23-21.07-15.37-31.58 33.17-17.56 66.29-35.31 99.35-53.25-5.67-11.54-11.37-23.06-17.08-34.56C2091.92 1550.84 2099.92 1546.46 2107.91 1542.06zM2164.12 1657.33c16.27 34.09 32.34 68.37 48.19 102.84-8.11 4.23-16.21 8.44-24.32 12.65-5.41-11.78-10.85-23.54-16.31-35.27-33.37 17.46-66.8 34.72-100.29 51.79-4.95-10.68-9.93-21.34-14.92-31.98 33.42-17.18 66.78-34.55 100.08-52.11-5.51-11.7-11.04-23.37-16.6-35.02C2148.01 1665.93 2156.06 1661.64 2164.12 1657.33zM2234.59 1876.18c-7.34-16.58-14.72-33.12-22.15-49.62-8.43 4.31-16.87 8.62-25.31 12.91 6.55 14.55 13.06 29.13 19.53 43.75-7.87 3.95-15.74 7.9-23.61 11.83-6.45-14.58-12.93-29.13-19.46-43.65-9.16 4.63-18.32 9.24-27.49 13.84 7.35 16.37 14.66 32.79 21.92 49.25-8.18 4.05-16.37 8.09-24.55 12.12-12.01-27.26-24.15-54.41-36.43-81.43 41.74-20.98 83.4-42.26 124.98-63.83 12.48 27.36 24.83 54.83 37.05 82.43C2250.91 1867.92 2242.75 1872.06 2234.59 1876.18zM2294.72 1945.6c14.34 33.42 3.54 59.02-18.44 69.69-15.87 7.72-34.72 5.62-49.35-12.45-12.26 18.54-24.57 37-36.95 55.37-5.19-12.4-10.42-24.79-15.66-37.14 11.95-17 23.85-34.07 35.7-51.21-1.13-2.63-2.27-5.26-3.4-7.88-15.87 7.79-31.75 15.54-47.64 23.24-4.7-10.91-9.42-21.8-14.16-32.68 42.01-20.54 83.94-41.38 125.8-62.52C2278.72 1908.5 2286.75 1927.02 2294.72 1945.6zM2268.4 1956.31c-2.94-6.84-5.88-13.68-8.83-20.5-10.4 5.18-20.81 10.33-31.22 15.47 2.94 6.81 5.87 13.62 8.79 20.44 5.3 12.36 13.69 15.26 23.58 10.41C2270.08 1977.55 2273.72 1968.71 2268.4 1956.31zM1423.7 961.09c12 2.65 241.4 400.37 241.4 400.37s-163.83 87.63-214.49 173.14c0 0-227.37-339.68-227.19-370.81C1223.6 1132.65 1319.96 938.19 1423.7 961.09zM1719.94 1461.3c0 0-198.35 120.58-191.24 168.62 7.11 48.05 90.37 235.6 108.43 242.7 18.06 7.1 202.58-143.15 215.63-160.08C1865.82 1695.62 1719.94 1461.3 1719.94 1461.3zM1892.73 1804.96l123.81 268.43-48.17 22.79c0 0-122.73-224.31-119.56-242.07C1851.97 1836.35 1892.73 1804.96 1892.73 1804.96zM1797.08 1865.46l65.04 140.86-48.27 16.43c0 0-43.91-127.68-42.95-133.19C1771.85 1884.05 1797.08 1865.46 1797.08 1865.46zM1671.39 1942.44c0 0 115.55 280.39 138.12 272.6 22.57-7.79 33.55-46.54 33.55-46.54s-102.57-231.32-129.56-243.49C1686.51 1912.83 1671.39 1942.44 1671.39 1942.44z"/></g><g><path fill="#efd9d3" d="M1185.08,2662.15c0,0-1.07-42.07,3.94-76.98c1.64-11.43,46.99-5.38,47.49,2.1
								c1.94,29.14-4.34,75.21-13.74,85.47C1213.37,2683.01,1190.68,2681.59,1185.08,2662.15z"/><path fill="#575e84" d="M1081.32,2713.06l-6.62,1.24c0,0-2.39,9.41,0.55,13.72c2.94,4.31,30.56,14.84,84.38,13.39
							c53.81-1.44,78.5-11.74,77.34-22.79C1235.81,2707.57,1104.44,2739,1081.32,2713.06z"/><path fill="#3e4268" d="M1236.97,2718.63c-71.23,26.82-178.18,5.86-160.54-7.28c3.88-2.89,10.65-5.35,18.86-7.7
							c29.19-8.28,76.72-14.82,77.99-31.79c1.63-21.74,11.58-24.87,13.87-24.06c0.58,0.22,2.17,0.95,4.36,1.81
							c6.41,2.51,18.05,6.05,25.21,0.4c9.63-7.57,11.04-8.43,15.28-3.42C1244.4,2661.29,1244.06,2673.68,1236.97,2718.63z"/><path fill="#575e84" d="M1191.73,2644.31c-0.97,5.08-2.9,10.85-5.17,15.57c-5.71,11.82,1.94,18.51-15.1,39.62
							c-17.02,21.1-78.02,5.56-76.18,4.15c29.19-8.28,76.94-20.11,78.21-37.08c1.63-21.74,11.58-24.87,13.87-24.06
							C1187.95,2642.71,1189.53,2643.45,1191.73,2644.31z"/><path fill="#3e4268" d="M1406.06,1219.33c-0.84,8.8-1.68,17.92-2.5,27.37c-23.35,259.64-37.36,665.82-125.15,1196.25
						c-9.7,58.91-20.42,119.39-32.08,181.35c-3.45,18.53-65.71,1.6-65.71,1.6c5.8-276.28-97.89-904.13-150.3-1201.34
						c-15.28-87.07-26.22-145.8-28.73-158.99c-0.29-1.86-0.48-2.83-0.48-2.83L1406.06,1219.33z"/><path fill="#3e4268" d="M1406.06,1219.33c-0.84,8.8-1.68,17.92-2.5,27.37c-23.35,259.64-37.36,665.82-125.15,1196.25
						c-8.23-34.26-16.46-68.51-24.61-102.85c-24.07-100.75-47.81-201.59-71.47-302.52c-11.78-50.02-23.65-100.11-35.34-150.13
						c-11.52-49.45-17.31-100.1-21.22-150.72c-3.82-49.97-5.85-100.06-9.99-150.01c-1.71-20.28-4.48-40.52-5.46-60.82
						c-0.83-17.37-1.26-35.08-5.33-52.04c-3.35-14.22-9.47-28.46-21.87-37.09c-10.74-7.38-23.92-11.2-36.79-12.27
						c-5.13-0.53-10.58-0.47-16.01,0.06c-0.97,0.11-2.03,0.21-3,0.32c-13.83-87.43-23.54-145.95-25.73-159.3
						c-0.29-1.86-0.48-2.83-0.48-2.83L1406.06,1219.33z" opacity=".2"/><path fill="#efd9d3" d="M1351.4,2683.83c0,0-27.26-88.11-15.06-95.04c12.2-6.93,41.69-11.2,48.9-5.64
							c7.2,5.56,10.79,100.89,0.07,113.97C1374.59,2710.2,1359.49,2707.04,1351.4,2683.83z"/><path fill="#3e4268" d="M1258.33,2737.86c0,0-0.43,13.16,11.35,18.76c29.24,13.89,124.7-4.13,129.18-13.08
							c4.49-8.95,2.56-20.12,2.56-20.12L1258.33,2737.86z"/><path fill="#3e4268" d="M1354.62,2661.26c0,0,24.77-0.01,35.89-4.38c10.12-3.98,18.68,60.35,10.42,71.45
							c-8.27,11.1-82.11,18.18-82.11,18.18s18.15-30.56,22.23-55.99C1345.13,2665.08,1331.78,2666.54,1354.62,2661.26z"/><path fill="#575e84" d="M1258.33,2737.86c0,0,28.98,20.44,71.99,7.21c13.58-4.18,25.44-69.5,18.68-82.45
							c-6.76-12.95-18.67,0.4-18.67,0.4S1336.84,2725.7,1258.33,2737.86z"/><path fill="#575e84" d="M1334.02 2740.82c0 0-20.36-20.4-44.67-20.34-24.31.06-31.03 17.39-31.03 17.39S1279.31 2766.55 1334.02 2740.82zM1436.61 1229.23c-.05 4.47-.11 8.94-.16 13.58-.11 5.45-.14 11.14-.16 16.83-.07 10.4-.14 20.97-.12 31.78.02 3.98.03 8.04.05 12.11.03 7.72.05 15.44.16 23.4.15 26.25.57 53.7 1.11 82.38 3.7 212.5 12.87 489.14-5.61 831.96-6.42 120.1-16.31 248.33-30.95 384.81-1.98 18.74-67.92 14-67.92 14-15.32-262.44-159.62-829.57-241.21-1133.46-30.65-114.33-52.44-191.4-55.19-200.93-.18-.73-.27-1.05-.27-1.05L1436.61 1229.23z"/><path fill="#3e4268" d="M1327.19,1472.71c-56.79-25.64-130.78-90.46-146.28-72.7c-15.5,17.76-13.67,27.85-13.67,27.85
						s138.85,74.9,152.23,71.61C1332.85,1496.17,1327.19,1472.71,1327.19,1472.71z"/><path fill="#3e4268" d="M1436.61,1229.23c-0.05,4.47-0.11,8.94-0.16,13.58c-0.11,5.45-0.14,11.14-0.16,16.83
						c-0.07,10.4-0.14,20.97-0.12,31.78c0.02,3.98,0.03,8.04,0.05,12.11c0.1,7.64,0.13,15.44,0.16,23.4
						c0.3,25.83,0.65,53.38,1.11,82.38c3.7,212.5,12.87,489.14-5.61,831.96c-2.55-4.49-5.02-9.06-7.32-13.64
						c-22.05-44.65-30.76-95.39-27.82-144.95c1.9-32.06,8.53-63.51,9.21-95.79c0.61-31.71-3.73-63.21-14.54-93.18
						c-11.15-30.85-29.3-58.69-42.46-88.68c-11.36-25.89-18.68-52.86-20.42-81.17c-1.4-24.02,1.36-47.65,3.95-71.53
						c2.06-19.07,3.79-38.12,4.78-57.33c2.1-40.6,1.64-83.01-10.04-122.3c-10.53-35.18-31.86-67.08-67.84-79.7
						c-21.56-7.6-46.62-9.02-68.94-4.5c-22.56,4.53-42.43,16.31-57.86,33.34c-21.29,23.43-33.23,53.71-40.76,84.78
						c-1.11,4.5-2.05,9.07-3,13.64c-29.22-122.24-49.67-204.47-52.19-214.57c-0.18-0.73-0.27-1.05-0.27-1.05L1436.61,1229.23z" opacity=".2"/><path fill="#337ccc" d="M1469.4,1290.87c-27.05,51.53-481.02,89.78-484.45,15.98c-9.37-202.02,31.44-822.47,265.36-834.7
					C1427.71,462.87,1568.47,1102.16,1469.4,1290.87z"/><g><path fill="#ebc0b8" d="M1495.01,715.06c0,0,145.36,266.86,68.62,332.56c-45.55,39-153.96-230.53-153.96-230.53L1495.01,715.06z"/></g><path fill="#4a97dd" d="M1308.62,492.2c0,0,218.6,161.51,259.83,307.5c-34.15,24.87-99.25,47.77-150.28,53.84
					C1266.48,610.91,1308.62,492.2,1308.62,492.2z"/><g><path fill="#3e4268" d="M1256.88,212.21c0,0,39.74-19.46,56.92,14.26c17.18,33.72,1.19,49.04,1.19,49.04s16.8,5.39,8.23,39.32
						c-8.58,33.94-41.26,35.14-41.26,35.14s24.07,53.91-27.8,55.81C1202.28,407.68,1126.56,279.38,1256.88,212.21z"/><path fill="#efd9d3" d="M1180.48,415.29c0,0-0.9,125.39,20.97,122.5c17.15-2.27,71.63-63.02,71.63-63.02l-22.35-134.9
						L1180.48,415.29z"/><path fill="#231f20" d="M1230.46,372.32c2.34,5.02,2.07,11.62,1.8,17.01c-0.77,15.43-4.71,30.62-15.66,42.04
						c-5.64,5.88-12.11,10.89-17.67,16.85c-5.97,6.39-10.12,13.74-13,21.97c-0.35,1.01-0.57,2.05-0.9,3.06l-4.55-57.96l39.76-42.69
						C1223.74,370.29,1228.15,367.39,1230.46,372.32z" opacity=".1"/><path fill="#efd9d3" d="M1107.31,359.92l13.42,2.85c0,0-0.96,2.48-2.18,6.52c-4.53,15.43-12.22,53.69,17.66,69.3
						c27.95,14.58,73.43-17.71,95.2-35.47c7.69-6.29,12.43-10.77,12.43-10.77l9.91-47.82c0,0,20.72-14.45,14.26-33.75
						c-6.4-19.3-17.61-7.89-17.61-7.89s-44.29-91.04-118.73-50.74c0,0-10.28,35.2-11.16,65.39
						C1120.53,317.52,1104.63,348.08,1107.31,359.92z"/><path fill="#3e4268" d="M1153.8,278.07c-11.58-1.63-20.36,7.01-20.78,7.43c-1.19,1.19-1.18,3.12,0,4.31
						c1.19,1.19,3.13,1.19,4.32,0.01c0.36-0.36,8.89-8.63,18.99-4.81c1.57,0.62,3.34-0.19,3.94-1.77c0.6-1.58-0.19-3.34-1.77-3.94
						C1156.9,278.68,1155.33,278.28,1153.8,278.07z"/><path fill="#3e4268" d="M1250.39,302.84c0,0-10.67,32.02-21.98,33.48c-11.31,1.47-20.48-49.12-29.11-61.21
						c0,0-78.31,14.61-95.31-41.35c-17.01-55.95,27.87-38.78,27.87-38.78s5.31-46.84,31.02-30.13c35.12,22.83,49.38,6.74,70.07,8.62
						c20.69,1.88,39.27,26.04,34.03,49.98C1266.98,223.45,1294.19,275.98,1250.39,302.84z"/><path fill="#3e4268" d="M1261.28,321.72c0.5-0.01,0.98-0.33,1.16-0.83c5.02-13.41-5.88-17.89-5.99-17.93
						c-0.66-0.26-1.39,0.06-1.65,0.71c-0.26,0.66,0.06,1.4,0.71,1.66c0.36,0.15,8.66,3.65,4.54,14.67
						c-0.25,0.66,0.09,1.39,0.75,1.64C1260.96,321.7,1261.12,321.72,1261.28,321.72z"/><path fill="#e5c9c3" d="M1144.39,358.16c2.32,7.74,12.07,11.67,21.77,8.76c9.7-2.91,15.69-11.54,13.37-19.28
						c-2.32-7.74-12.07-11.66-21.77-8.75C1148.05,341.78,1142.07,350.41,1144.39,358.16z"/><path fill="#3e4268" d="M1118.39 401.56c.14 6.07 6.43 10.86 14.04 10.68 7.61-.18 13.67-5.25 13.53-11.32-.14-6.08-6.43-10.86-14.04-10.68C1124.31 390.42 1118.25 395.48 1118.39 401.56zM1132.56 308.69c.12 4.77 3.59 8.55 7.77 8.45 4.14-.1 7.43-4.04 7.31-8.82-.02-.84-.16-1.63-.42-2.38-.74.74-1.76 1.24-2.88 1.27-2.27.06-4.14-1.73-4.2-4-.03-1.27.5-2.4 1.39-3.18-.52-.11-1.08-.17-1.63-.16C1135.73 299.98 1132.44 303.92 1132.56 308.69z"/></g><g><path fill="#ebc0b8" d="M924.28,774.88c0,0,0.78-40.05,11.77-41.82c10.99-1.77,8.02,41.34,8.02,41.34L924.28,774.88z"/><path fill="#bac8e5" d="M927.31,710.59c5.63,56.72,10.95,110.26,15.96,160.86c0.26,2.58,2.53,4.92,5.09,5.27
								c83.88,11.16,178.91,15.69,287.65,12.15c3.78-0.13,7.05-2.76,7.27-5.9c4.25-62.19,8.8-128.87,13.7-200.53
								c0.14-2.08-0.7-3.94-2.17-5.21c0,0,0,0-0.02-0.02c-1.29-1.13-3.04-1.81-5.03-1.81c-121.77,0.86-227.62,11.12-318.1,28.67
								c-1.22,0.23-2.27,0.97-3.03,1.95c-0.17,0.2-0.32,0.42-0.44,0.63c-0.03,0.05-0.04,0.07-0.04,0.07
								C927.5,707.84,927.18,709.2,927.31,710.59z"/><path fill="#d3daea" d="M928.16,706.72c0,0,156.02,190.4,326.66-29.49c0,0,0,0-0.02-0.02c-1.29-1.13-3.04-1.81-5.03-1.81
								c-121.77,0.86-227.62,11.12-318.1,28.67c-1.22,0.23-2.27,0.97-3.03,1.95c-0.23,0.32-0.36,0.53-0.44,0.63
								C928.17,706.7,928.16,706.72,928.16,706.72z"/><path fill="#9aaccc" d="M931.66,704.07c-1.41,0.21-2.76,1.22-3.59,2.56l-0.07,0.1l0.06,0.08c17.35,21,38.63,39.07,62.85,53.45
								c61.98,37.36,138.81,36.06,205.53-20.39c22.02-17.51,40.94-39.6,58.5-62.57l0.08-0.11c-1.38-1.2-3.32-1.86-5.27-1.8
								c1.9,0.04,3.68,0.75,4.94,1.94l-0.02-0.19c-77.58,96.79-169.99,132.58-262.27,80.1c-24.31-13.56-45.92-30.84-64.17-50.62
								c0,0,0,0.18,0,0.18c0,0,0.08-0.13,0.04-0.07C929.06,705.38,930.27,704.38,931.66,704.07L931.66,704.07z"/><path fill="#bac8e5" d="M1123.38,782.68c0,0-41.67-32.24-92.78,0.8C1030.61,783.48,1067.47,819.94,1123.38,782.68z"/><path fill="#9aaccc" d="M1233.14,881.82c-40.79-54.56-103.28-117.85-159.19-117c-28.62,1.72-53.31,19.39-74.1,39.42
							c-19.97,19.55-37.25,42.19-51.81,66.78c15.8-22.85,33.7-44.3,53.93-62.94c20.47-18.45,44.8-35.58,72.13-36.92
							C1127.79,770.38,1190.45,832.17,1233.14,881.82L1233.14,881.82z"/><g><path fill="#efd9d3" d="M924.28,774.88c0,0,76.14-14.52,80.45-0.65c2.01,6.48-16.06,12.34-36.02,16.95
									c24.62-4.75,52.2-6.83,51.02,0.95c-0.91,5.99-30.24,12.47-49.93,17.85c13.83-2.45,45.01-6.91,46.78-1.04
									c2.26,7.47-26.44,15.81-45.58,19.09c11.53-1.17,32.08-2.56,32.87,2.99c0.7,4.91-4.34,10.08-28.43,14.12
									c-14.06,2.36-13.16,4.97-19.76,4.79c-5.09-0.14-10.39,0.28-14.44-1.86C921.76,837.79,914.54,782.06,924.28,774.88z"/><path fill="#fff" d="M1002.08 832.16c-.81-2.51-9.12-3.01-9.86-2.43 0 0 .83 6.71 1.5 7.79C994.37 838.6 1002.89 834.66 1002.08 832.16zM1015.76 809.62c-.81-2.51-9.12-3.01-9.87-2.43 0 0 .84 6.71 1.5 7.79C1008.06 816.06 1016.57 812.13 1015.76 809.62zM1017.5 791.21c-.81-2.51-9.12-3.01-9.86-2.43 0 0 .84 6.72 1.5 7.79C1009.8 797.65 1018.31 793.72 1017.5 791.21zM1001.97 773.78c-.81-2.51-9.12-3.01-9.86-2.43 0 0 .83 6.72 1.5 7.79C994.27 780.22 1002.79 776.29 1001.97 773.78z" opacity=".2"/><path fill="#ebc0b8" d="M937.92 838.39c.16-.02.31-.08.43-.2.31-.29.33-.78.04-1.09-11.7-12.69-7.11-25.71-7.06-25.84.07-.2.06-.43-.04-.62-5.95-11.55-.36-22.49-.31-22.6.2-.38.05-.84-.32-1.04-.38-.2-.84-.05-1.04.32-.25.47-5.93 11.59.16 23.74-.66 2.2-3.79 14.85 7.48 27.08C937.44 838.33 937.68 838.41 937.92 838.39zM953.68 794.57c9.92-1.16 22.36-4.37 22.98-4.53.41-.11.66-.53.55-.94-.11-.41-.52-.66-.94-.55-.18.05-17.94 4.63-27.83 4.89-.43.01-.76.36-.75.79.01.42.36.76.79.75C950.06 794.93 951.82 794.78 953.68 794.57zM958.87 812.44c8.82-1.03 18.03-3.09 18.15-3.12.41-.09.68-.51.58-.92-.09-.42-.49-.69-.92-.58-.15.04-15.12 3.39-25.03 3.64-.44.01-.76.36-.75.79.01.43.37.76.79.75C953.91 812.94 956.37 812.74 958.87 812.44zM961.94 830.49c8.54-1 17.09-2.99 17.2-3.01.42-.1.67-.51.57-.93-.1-.41-.51-.68-.93-.57-.14.03-14.02 3.26-23.93 3.51-.43.01-.76.36-.75.79.01.43.37.76.79.75C957.12 830.98 959.53 830.77 961.94 830.49z"/></g></g><g><path fill="#efd9d3" d="M1537.13,941.09c-68.27-71.1-256.77-134.26-256.77-134.26l-32.52,43.24c0,0,171.14,208.9,262.02,209.8
						C1622.09,1060.97,1566.87,972.06,1537.13,941.09z"/><path fill="#efd9d3" d="M1268.06,781.23c7.24,8.18,13.34,19.66,12.3,25.6c0.54,3.84,24.73,27.73,32.09,34.78l-27.48,42.06
									l-36.52-32.42c0,0-9.56-3.57-25.24-11.27c-15.68-7.7-75.61-38.84-69.53-44.69c6.08-5.85,39.17,11.86,39.17,11.86
									s-48.16-36.53-40.97-42.51c7.19-5.99,49.79,24.74,49.79,24.74s-51.47-41.68-48.18-51.22c3.29-9.54,58.07,37.25,58.07,37.25
									s-40.23-48.04-33.49-54.38c6.73-6.34,47.18,42.32,57.69,50.52c6.82,5.32,14.73,3.42,12.51-5.37
									c-2.21-8.79,6.62-24.47,13.28-23.31C1268.21,744.04,1260.82,773.06,1268.06,781.23z"/><g opacity=".5"><path fill="#fff" d="M1263.27 757.97c0 0-3.81.52-5.02-.87-1.21-1.39 2.61-12.14 4.13-11.73C1263.91 745.79 1264.23 757.46 1263.27 757.97zM1186.87 725.97c0 0-2.76 3.23-5.04 3.81-2.28.58-3.84-6.2-2.73-7.52C1180.23 720.94 1184.67 722.2 1186.87 725.97zM1162.68 741.19c-.01 1.59-1.57 4.46-3.85 5.04-2.28.58-5.28-6.51-4.16-7.84C1155.78 737.07 1162.69 738.84 1162.68 741.19zM1160.64 767.91c-.01 1.59-1.22 3.85-3.5 4.43-2.28.58-5.63-5.91-4.51-7.23C1153.74 763.79 1160.65 765.56 1160.64 767.91zM1162.08 796.89c-.01 1.58-.17 4.03-2.45 4.61-2.28.58-6.14-4.97-5.02-6.29C1155.72 793.89 1162.1 794.54 1162.08 796.89z"/></g></g></g><g><path fill="#bac8e5" d="M644.55,1874.78c-6.45-0.36-12.54-2.02-18.13-4.96c-15.42-7.86-24.92-24.42-23.94-42.05l14.13-254.73
					c1.36-24.53,22.45-43.37,47.01-42.01l254.67,14.13c24.56,1.36,43.43,22.42,42.07,46.95l-14.13,254.73
					c-0.56,10.12-4.35,19.42-10.96,26.89c-8.78,10.3-22.02,15.95-36.05,15.17L644.55,1874.78z"/><path fill="#f1f2ff" d="M937.23,1590.83l-14.13,254.73c-0.28,4.97-2.15,9.4-5.18,12.82c-4.16,4.88-10.47,7.77-17.41,7.39
					l-254.67-14.13c-3.12-0.17-6.04-0.97-8.63-2.34c-7.28-3.71-12.07-11.52-11.58-20.25l14.13-254.73
					c0.65-11.8,10.73-20.81,22.59-20.16l254.67,14.13C928.87,1568.96,937.88,1579.03,937.23,1590.83z"/><path fill="#d3daea" d="M703.39 1748.14l-29.27-57.89c-4.76-9.42-17.94-10.15-23.72-1.31l-18.58 28.43-6.2 111.69c-.48 8.73 4.3 16.54 11.58 20.25 2.59 1.36 5.51 2.16 8.63 2.34l113.08 6.27L703.39 1748.14zM904.97 1743.48l-25.48 38.97-51.86 79.28 72.88 4.04c6.94.39 13.25-2.51 17.41-7.39 3.03-3.43 4.9-7.85 5.18-12.82l5.59-100.76C923.92 1735.38 910.75 1734.65 904.97 1743.48z"/><path fill="#bac8e5" d="M879.48,1782.45l-75.86-150.06c-4.76-9.42-17.94-10.15-23.72-1.32l-76.52,117.06l-66.18,101.17
						c2.59,1.36,5.51,2.16,8.63,2.34l254.67,14.13c6.94,0.39,13.25-2.51,17.41-7.39L879.48,1782.45z"/><path fill="#d3daea" d="M904.2,1619.05c-0.96,17.37-15.83,30.67-33.19,29.7c-17.37-0.96-30.67-15.82-29.7-33.19
						s15.83-30.67,33.19-29.7C891.86,1586.82,905.16,1601.68,904.2,1619.05z"/></g><g><path fill="#e1e6f4" d="M1333.88,2126.51c0,0-116.38,39.83-53.15,196.59C1280.73,2323.1,1422.44,2242.77,1333.88,2126.51z"/><path fill="#fff" d="M1282.83,2318.61l16.49-47.35c5.41-15.79,10.8-31.58,15.78-47.49c2.53-7.94,4.98-15.9,7.24-23.91
							c2.33-7.99,4.47-16.03,6.42-24.11c1.9-8.09,3.65-16.22,4.79-24.44c1.19-8.2,1.83-16.55,0.32-24.8
							c1.23,3.99,2.02,8.19,2.14,12.4c0.26,4.21,0.15,8.43-0.1,12.64c-0.6,8.41-1.87,16.74-3.47,24.99
							c-3.21,16.51-7.75,32.69-12.74,48.69c-5.1,15.97-10.7,31.76-16.86,47.33C1296.75,2288.16,1290.1,2303.53,1282.83,2318.61z" opacity=".52"/></g><g><path fill="#f1f2ff" d="M904.38,2559.71c0,0,33.55,118.34,193.47,63.59C1097.85,2623.29,1025.21,2477.49,904.38,2559.71z"/><path fill="#fff" d="M1093.48,2620.95l-46.4-19c-15.48-6.25-30.96-12.47-46.58-18.3c-7.79-2.96-15.61-5.82-23.49-8.51
							c-7.86-2.75-15.77-5.32-23.74-7.7c-7.98-2.33-16-4.51-24.15-6.09c-8.12-1.63-16.43-2.71-24.75-1.65
							c4.05-1.01,8.29-1.58,12.5-1.47c4.22-0.04,8.43,0.31,12.62,0.77c8.36,1.05,16.62,2.76,24.77,4.8
							c16.31,4.08,32.23,9.49,47.93,15.33c15.67,5.95,31.14,12.39,46.36,19.37C1063.81,2605.42,1078.81,2612.88,1093.48,2620.95z" opacity=".52"/></g><g><path fill="#f1f2ff" d="M1571.29,2477.65c0,0-132.7-49.78-191.25,135.97C1380.05,2613.62,1564.95,2645.94,1571.29,2477.65z"/><path fill="#fff" d="M1385.21,2611.17l49.35-30.05c16.38-10.08,32.73-20.19,48.81-30.69c8.07-5.21,16.08-10.5,23.95-15.97
							c7.93-5.4,15.72-10.99,23.37-16.75c7.61-5.81,15.12-11.76,22.16-18.23c7.07-6.42,13.74-13.39,18.44-21.83
							c-1.83,4.45-4.2,8.77-7.18,12.6c-2.85,3.94-6.05,7.61-9.34,11.18c-6.69,7.04-13.92,13.53-21.39,19.7
							c-14.94,12.34-30.83,23.4-46.99,33.98c-16.23,10.47-32.78,20.42-49.66,29.76C1419.89,2594.27,1402.72,2603.08,1385.21,2611.17
							z" opacity=".52"/></g><polygon fill="#d3daea" points="1122.62 2513.34 987.59 2357.12 946.8 2411.05"/><polygon fill="#d3daea" points="1443.1 2425.9 1531.32 2347.28 1500.11 2324.41"/><path fill="#f1f2ff" d="M1158.33 2378.71c0 11.93-9.67 21.6-21.6 21.6-11.93 0-21.6-9.67-21.6-21.6 0-11.93 9.67-21.6 21.6-21.6C1148.66 2357.12 1158.33 2366.79 1158.33 2378.71zM1341.8 2458.2c0 12.69-10.29 22.97-22.97 22.97s-22.97-10.28-22.97-22.97c0-12.69 10.29-22.97 22.97-22.97S1341.8 2445.52 1341.8 2458.2z"/><path fill="#bac8e5" fill-rule="evenodd" d="M866.8,798.86c0,0-22.43,116.57,84.11,137.39C950.9,936.25,821.94,954.66,866.8,798.86z" clip-rule="evenodd"/></svg>